HIERARCHY
ROOT Hips
{
  OFFSET 13.6774 106.653 -34.4427
  CHANNELS 6 Xposition Yposition Zposition Zrotation Xrotation Yrotation
  JOINT ToSpine
  {
    OFFSET -2.69724 7.43032 -0.144315
    CHANNELS 3 Zrotation Xrotation Yrotation
    JOINT Spine
    {
      OFFSET -0.0310711 10.7595 1.96963
      CHANNELS 3 Zrotation Xrotation Yrotation
      JOINT Spine1
      {
        OFFSET 19.9056 3.91189 0.764692
        CHANNELS 3 Zrotation Xrotation Yrotation
        JOINT Neck
        {
          OFFSET 25.9749 7.03908 -0.130764
          CHANNELS 3 Zrotation Xrotation Yrotation
          JOINT Head
          {
            OFFSET 9.52751 0.295786 -0.907742
            CHANNELS 3 Zrotation Xrotation Yrotation
            End Site
            {
              OFFSET 16.4037 0.713936 2.7358
            }
          }
        }
        JOINT LeftShoulder
        {
          OFFSET 17.7449 4.33886 11.7777
          CHANNELS 3 Zrotation Xrotation Yrotation
          JOINT LeftArm
          {
            OFFSET 0.911315 1.27913 9.80584
            CHANNELS 3 Zrotation Xrotation Yrotation
            JOINT LeftForeArm
            {
              OFFSET 28.6126 1.18197 -3.53199
              CHANNELS 3 Zrotation Xrotation Yrotation
              JOINT LeftHand
              {
                OFFSET 27.5088 0.0218783 0.327423
                CHANNELS 3 Zrotation Xrotation Yrotation
                End Site
                {
                  OFFSET 18.6038 -0.000155887 0.382096
                }
              }
            }
          }
        }
        JOINT RightShoulder
        {
          OFFSET 17.1009 2.89543 -12.2328
          CHANNELS 3 Zrotation Xrotation Yrotation
          JOINT RightArm
          {
            OFFSET 1.4228 0.178766 -10.211
            CHANNELS 3 Zrotation Xrotation Yrotation
            JOINT RightForeArm
            {
              OFFSET 28.733 1.87905 2.64907
              CHANNELS 3 Zrotation Xrotation Yrotation
              JOINT RightHand
              {
                OFFSET 27.4588 0.290562 -0.101845
                CHANNELS 3 Zrotation Xrotation Yrotation
                End Site
                {
                  OFFSET 17.8396 -0.255518 -0.000602873
                }
              }
            }
          }
        }
      }
    }
  }
  JOINT LeftUpLeg
  {
    OFFSET -5.61296 -2.22332 -10.2353
    CHANNELS 3 Zrotation Xrotation Yrotation
    JOINT LeftLeg
    {
      OFFSET 2.56703 -44.7417 -7.93097
      CHANNELS 3 Zrotation Xrotation Yrotation
      JOINT LeftFoot
      {
        OFFSET 3.16933 -46.5642 -3.96578
        CHANNELS 3 Zrotation Xrotation Yrotation
        JOINT LeftToeBase
        {
          OFFSET 0.346054 -6.02161 12.8035
          CHANNELS 3 Zrotation Xrotation Yrotation
          End Site
          {
            OFFSET 0.134235 -1.35082 5.13018
          }
        }
      }
    }
  }
  JOINT RightUpLeg
  {
    OFFSET -5.7928 -1.72406 10.6446
    CHANNELS 3 Zrotation Xrotation Yrotation
    JOINT RightLeg
    {
      OFFSET -2.57161 -44.7178 -7.85259
      CHANNELS 3 Zrotation Xrotation Yrotation
      JOINT RightFoot
      {
        OFFSET -3.10148 -46.5936 -4.03391
        CHANNELS 3 Zrotation Xrotation Yrotation
        JOINT RightToeBase
        {
          OFFSET -0.0828122 -6.13587 12.8035
          CHANNELS 3 Zrotation Xrotation Yrotation
          End Site
          {
            OFFSET -0.131328 -1.35082 5.13018
          }
        }
      }
    }
  }
}
MOTION
Frames: 7
Frame Time: 0.03333333333333333
0.0000 93.1000 0.0000 71.0438 -24.1127 -6.0090 -71.0162 -1.0528 88.0038 82.2531 68.0982 -2.1647 6.0603 16.5155 3.3551 -118.3247 25.3473 154.7300 -176.5183 70.8363 -155.5814 -0.6262 -15.4558 -19.5939 -73.0109 35.1023 -146.8525 8.8866 -2.1215 -96.2758 -0.3560 -0.7643 0.4673 -1.5660 6.5475 23.7071 -133.9524 -22.0211 73.8234 12.0661 7.9118 121.9105 0.6397 0.7132 0.4161 -50.2189 12.8895 90.6658 -3.6986 40.5590 -10.8045 -1.6344 -16.6143 -1.3327 2.6345 -9.0146 8.7267 -33.7278 -16.7549 87.3462 -1.3106 26.9528 7.0992 -0.7608 12.1779 -1.5922 0.8308 -7.5231 -7.1392 
0.0000 93.1000 0.0000 71.2369 -25.5783 -6.3226 -71.0130 -0.9288 88.0056 83.0163 68.4064 -1.9564 5.8227 17.0558 3.1306 -118.4622 25.8911 154.8717 -175.5412 71.2301 -158.6165 -0.1834 -15.3249 -20.0256 -73.1520 35.3478 -147.7254 8.7346 -2.0813 -96.2036 -0.0900 -0.6562 0.2267 -1.3222 6.6628 23.9442 -135.2257 -21.1808 74.2590 12.8635 8.5876 121.9100 0.4291 0.6290 0.4649 -50.8609 10.9602 91.1130 -3.1539 39.4163 -10.1141 -1.1030 -16.1094 -1.6269 1.8900 -8.1919 8.8406 -33.7251 -16.9840 84.9953 0.0009 29.1112 1.1106 -1.4621 10.8660 -1.2021 0.3437 -4.6699 -8.0037 
0.0000 93.1000 0.0000 72.0442 -27.2180 -6.2621 -71.0117 -0.8868 88.0039 84.0740 69.2085 -3.6357 5.1992 17.3774 3.9387 -118.3129 26.0790 154.8913 -175.4817 71.9085 -158.8698 -0.1058 -15.2045 -20.0586 -73.1111 34.9636 -146.8416 8.5493 -1.8714 -97.2793 -0.0611 -0.6674 0.2381 -1.3785 6.3035 25.0292 -136.6420 -20.0602 73.2689 12.8426 9.4212 122.8661 0.4749 0.5280 0.3589 -51.8448 10.1744 92.0654 -3.5142 38.3592 -8.4660 -1.0450 -16.5368 -1.6233 1.1181 -7.3178 8.2406 -33.0796 -16.8661 81.9426 0.9077 33.5332 -1.9764 -3.5220 8.3034 -0.6956 -0.0257 -6.5322 -1.8324 
0.0000 93.1000 0.0000 72.0814 -27.8979 -5.7689 -71.0110 -0.6307 88.0039 86.2210 69.6894 -5.9071 4.1311 17.6947 4.2983 -118.4663 26.2967 155.2039 -174.1638 71.9061 -160.1512 -0.4504 -15.2730 -20.2242 -72.9448 34.6620 -146.5172 9.0893 -2.2612 -98.2729 -0.1618 -0.4231 0.1987 -1.6031 6.1970 25.9007 -137.6370 -19.2456 73.0173 14.1309 9.6289 123.8339 0.4181 0.2185 0.0840 -53.2094 9.7806 93.0300 -3.3481 37.1141 -7.3190 -0.3530 -16.8630 -1.5040 0.9235 -6.1191 9.3307 -32.0768 -17.0341 79.9745 -0.1327 39.0100 -4.9784 -4.4162 5.7072 -0.3798 -0.1999 -7.9287 3.3016 
0.0000 93.1000 0.0000 72.0979 -28.8643 -6.0101 -71.0100 -0.5491 88.0030 87.0238 69.9552 -7.5518 3.6259 17.7640 5.0443 -117.5374 26.9535 155.8618 -176.5550 71.9915 -157.9009 0.1854 -14.7795 -20.8784 -73.0695 34.8703 -144.7079 9.8280 -1.9768 -99.1508 0.1356 -0.4598 0.2917 -1.3072 6.1245 26.4829 -137.9335 -18.8225 73.1705 14.6514 10.0315 123.9762 0.3577 0.2661 0.2105 -53.7919 8.9917 93.7926 -3.0057 36.4385 -6.7553 0.0481 -15.9571 -1.8192 0.8568 -7.1564 11.1233 -32.0352 -16.5287 78.9074 1.0036 43.0117 -4.9697 -4.4450 4.2469 -0.3400 0.7400 -10.0100 1.9922 
0.0000 93.1000 0.0000 72.7790 -29.0517 -5.7799 -71.0124 -0.7703 88.0014 84.9860 70.0236 -5.5800 3.9530 17.5118 5.4656 -117.3521 27.0800 155.9117 -176.7875 72.2684 -156.2975 -0.0427 -14.8618 -21.1871 -72.1399 35.2603 -145.0033 10.0943 -1.9426 -99.6951 0.0534 -0.6549 0.5077 -1.4720 5.9921 27.1911 -137.7650 -18.9851 72.1436 14.2027 9.8379 124.0714 0.4025 0.4387 0.2068 -53.9184 7.9616 93.1439 -2.3370 36.4004 -7.1995 -0.2078 -15.9506 -1.4302 0.6172 -6.9225 13.0103 -33.0913 -17.1665 77.3838 0.8699 46.2623 -4.9186 -4.9546 3.1374 -0.3265 1.1016 -11.5099 1.6988 
0.0000 93.1000 0.0000 72.9443 -29.0079 -5.9621 -71.0108 -0.5582 87.9994 84.0503 69.8129 -4.1719 4.1629 17.1828 5.7130 -117.3619 27.7916 155.9553 -176.5392 72.7278 -155.6769 -0.3001 -14.9014 -21.7618 -71.4687 35.7130 -144.8905 10.3766 -2.3966 -100.2774 -0.2231 -0.5374 0.4872 -1.7198 6.0157 28.0921 -136.6835 -19.0331 72.0667 13.1565 9.2956 124.1043 0.3105 0.3693 0.0953 -54.0863 7.9325 92.9849 -2.8162 36.2673 -8.3692 -0.6188 -15.7640 -1.2635 0.8763 -8.0416 13.4049 -33.9973 -17.3939 75.5651 1.0778 46.4970 -5.1869 -4.7741 2.7791 -0.4527 1.3278 -12.8749 2.1737 
